<?xml version="1.0" encoding="utf-8"?>
<!-- Svg Vector Icons : http://www.onlinewebfonts.com/icon -->
<!DOCTYPE svg PUBLIC "-//W3C//DTD SVG 1.1//EN" "http://www.w3.org/Graphics/SVG/1.1/DTD/svg11.dtd">
<svg version="1.1" xmlns="http://www.w3.org/2000/svg" xmlns:xlink="http://www.w3.org/1999/xlink" x="0px" y="0px" viewBox="0 0 1000 1000" enable-background="new 0 0 1000 1000" xml:space="preserve">
<metadata> Svg Vector Icons : http://www.onlinewebfonts.com/icon </metadata>
<g><g><path d="M667.9,972.5c-4.8,1.7-9.6,3.8-14.5,4.7c-18.8,3.4-30.8-6.3-31-25.6c-0.2-35.7-0.2-71.4,0.4-107.1c0.6-41.1-0.4-81.6-31.6-115.5c18.6-3.3,35.1-5.7,51.3-9.4c107.2-24.6,162.8-92.2,169.9-204.4c3.6-57.1-6.6-109.5-44.5-154.5c-2.7-3.2-2.9-10.4-1.6-15c10.1-37.2,7.2-73.5-4.6-109.9c-2.9-9.1-7.8-11.9-16.7-11.3c-31.5,1.7-60.3,12.8-85.7,29.8c-24.5,16.4-47.3,20-76.4,13.4c-64.1-14.5-128.6-10.2-192.6,4.6c-7.2,1.7-17-0.6-23.6-4.5c-30-17.6-60-34.7-94.7-41.5c-26.8-5.2-29.1-3.9-36.2,22c-8.9,32.6-9.8,65.3-0.7,98.1c1.3,4.8-0.1,12.4-3.2,16c-71,79.2-45.3,228.8,2.5,286.1c37.2,44.5,86.6,64.5,141.4,75c9.6,1.8,19.1,3.1,28.7,4.8c-8.2,21.4-15.6,41.5-23.9,61.4c-1.6,3.8-6.8,7-11.1,8.7c-53.8,20.9-100,5.5-130.8-43.3c-16.5-26-37.6-45.5-69-51.1c-1-0.2-2-0.7-2.9-0.6c-8.5,2.2-16.8,4.5-25.3,6.8c4.8,6.6,8.1,15.5,14.5,19.5c26.7,16.9,44,40.9,55.5,69.3c18,44.5,53,64.4,98.4,68.2c22.2,1.8,44.6,0.3,68.8,0.3c0,27.6,1,59.2-0.4,90.6c-0.7,16.9-17.7,23.7-38.1,16.7c-54-18.5-104.1-45-147.4-82.2C36.5,758.1-23.7,588,28.2,388.9C80,190.4,214.9,68.7,416.5,30.5C695.6-22.3,959.9,181,987.6,464.2C1009.5,687.6,878.1,896.5,667.9,972.5z M404.8,727.3c-0.2,0.4-0.3,0.7-0.4,1.1c0.5,0.1,1,0.2,1.5,0.2C406.3,728.6,406.6,729.3,404.8,727.3z M278.6,815.6c4.3,2.7,8.5,6.1,13.2,7.6c1.7,0.6,4.9-3.4,10.5-7.5c-7.8-3-12.4-5.6-17.3-6.3C283.2,809.1,280.7,813.4,278.6,815.6z M318.3,822.4c0.6,2.9,6.4,6.6,9.9,6.5c3.3-0.1,6.5-4.4,9.8-6.9c-3-2.7-6-5.4-15.2-13.7C320.8,814,317.5,818.7,318.3,822.4z M367.1,810.6c-4.1,1-7.6,4.8-11.3,7.4c2.2,2.8,4.4,5.3,7.9,9.7c4.9-4.4,8.2-7.5,11.5-10.5C372.4,814.8,369.2,810.1,367.1,810.6z M246.2,794.2c2.3,4.3,5.8,8,10.6,14.1c3.2-5.2,6.7-9.2,6-10c-3-4-7.1-7.2-11.2-10.2C251.4,787.9,245.7,793.2,246.2,794.2z"/></g><g></g><g></g><g></g><g></g><g></g><g></g><g></g><g></g><g></g><g></g><g></g><g></g><g></g><g></g><g></g></g>
</svg>