<?xml version="1.0" encoding="UTF-8" standalone="no"?>
<svg
   xmlns:dc="http://purl.org/dc/elements/1.1/"
   xmlns:cc="http://creativecommons.org/ns#"
   xmlns:rdf="http://www.w3.org/1999/02/22-rdf-syntax-ns#"
   xmlns:svg="http://www.w3.org/2000/svg"
   xmlns="http://www.w3.org/2000/svg"
   xmlns:sodipodi="http://sodipodi.sourceforge.net/DTD/sodipodi-0.dtd"
   xmlns:inkscape="http://www.inkscape.org/namespaces/inkscape"
   version="1.0"
   width="948"
   height="693"
   viewBox="22 40 948 693"
   id="svg2"
   inkscape:version="0.91 r13725"
   sodipodi:docname="Camelia_mono_1path.svg">
  <metadata
     id="metadata103">
    <rdf:RDF>
      <cc:Work
         rdf:about="">
        <dc:format>image/svg+xml</dc:format>
        <dc:type
           rdf:resource="http://purl.org/dc/dcmitype/StillImage" />
        <dc:title></dc:title>
      </cc:Work>
    </rdf:RDF>
  </metadata>
  <sodipodi:namedview
     pagecolor="#ffffff"
     bordercolor="#666666"
     borderopacity="1"
     objecttolerance="10"
     gridtolerance="10"
     guidetolerance="10"
     inkscape:pageopacity="0"
     inkscape:pageshadow="2"
     inkscape:window-width="2364"
     inkscape:window-height="1118"
     id="namedview101"
     showgrid="false"
     inkscape:zoom="1.3621934"
     inkscape:cx="474"
     inkscape:cy="347.23411"
     inkscape:window-x="3504"
     inkscape:window-y="217"
     inkscape:window-maximized="0"
     inkscape:current-layer="svg2" />
  <defs
     id="defs4">
    <clipPath
       id="clipPath17">
      <path
         d="M 0,-0.1 L 792.1,-0.1 L 792.1,612 L 0,612 L 0,-0.1 z"
         id="path19" />
    </clipPath>
  </defs>
  <path
     style="fill:#000000;fill-opacity:1;fill-rule:evenodd;stroke:none"
     d="M 196.8457 25.09375 C 142.3082 25.1275 90.745295 47.948727 58.267578 92.216797 A 4.4930745 4.4930745 0 0 0 58.265625 92.220703 C 0.650329 170.92731 25.868576 286.97572 113.73828 351.25195 C 144.95909 374.12243 180.03234 387.46294 214.85938 391.62695 C 207.30634 395.62208 199.9261 400.22436 192.79883 405.45703 L 192.80469 405.45508 C 122.51092 456.84313 102.3794 549.51729 148.3457 612.33789 C 194.43431 675.27885 288.81115 684.05477 359.10156 632.54492 C 398.13081 604.01271 421.68203 562.75248 427.0332 520.91992 C 431.90698 522.31578 436.89527 523.51205 441.98047 524.50195 L 441.98047 561.125 A 5.3952271 5.3952271 0 0 0 442.75586 563.91016 L 463.25586 597.91016 A 5.3952271 5.3952271 0 0 0 467.875 600.51953 L 467.875 589.73047 L 470.92188 589.73047 L 452.76953 559.625 L 452.76953 526.26758 C 460.78488 527.33268 469.00356 527.89453 477.375 527.89453 C 480.81255 527.89453 484.22239 527.79113 487.60547 527.60742 L 487.60547 561.25 A 5.3952271 5.3952271 0 0 0 488.38086 564.03516 L 508.88086 598.03516 A 5.3952271 5.3952271 0 0 0 513.5 600.64453 L 513.5 589.85547 L 516.54688 589.85547 L 498.39453 559.75 L 498.39453 526.70703 C 509.81774 525.41676 520.84519 523.09383 531.31836 519.84766 C 536.059 562.47255 559.71988 604.7797 599.4082 633.91797 A 2.6887626 2.6887626 0 0 0 599.41406 633.91992 C 669.70442 685.30547 764.07799 676.52982 810.16797 613.58984 L 810.16992 613.58789 C 856.26142 550.7676 836.13225 457.97212 765.96484 406.58203 C 760.59414 402.6461 755.08061 399.07124 749.46094 395.83789 C 778.78984 389.972 807.85311 377.52591 834.16992 358.25 C 921.41011 294.35038 946.50281 179.17209 889.14062 100.8457 C 856.94335 56.854671 805.70311 34.1552 751.50391 34.085938 C 709.34898 34.032066 665.40495 47.668162 627.23633 75.625 A 4.4930745 4.4930745 0 0 0 627.23242 75.628906 C 555.9969 127.90994 526.22177 214.29307 548.92578 286.80664 C 543.47218 288.67786 538.3403 291.2496 533.6543 294.43555 C 523.31172 291.06162 512.4205 288.57171 501.11133 287.12109 C 502.71802 254.77842 492.95322 221.62325 505.39648 196.41211 A 6.2973735 6.2973735 0 0 0 505.55664 196.0625 L 512.8457 178.70508 L 517.64844 186.78711 L 514.28906 187.44531 L 516.71094 199.80469 L 528.83594 197.42969 A 6.2973735 6.2973735 0 0 0 533.03711 188.0332 L 517.28711 161.5332 A 6.2973735 6.2973735 0 0 0 512.0918 158.45703 A 6.2973735 6.2973735 0 0 0 506.06836 162.3125 L 493.96289 191.13867 C 494.01167 191.03865 494.05419 190.93783 494.10352 190.83789 L 493.94336 191.1875 L 493.96289 191.13867 C 478.93779 221.9482 489.62566 257.06661 488.53906 285.93945 C 484.85087 285.7203 481.1286 285.60547 477.375 285.60547 C 473.36735 285.60547 469.39559 285.7368 465.46289 285.98633 C 464.35183 257.08933 474.93993 221.95167 459.91016 191.13672 L 459.93164 191.1875 L 459.77148 190.83789 C 459.82043 190.93706 459.86174 191.03746 459.91016 191.13672 L 447.80664 162.3125 A 6.2973735 6.2973735 0 0 0 441.83008 158.45703 A 6.2973735 6.2973735 0 0 0 436.58789 161.5332 L 420.83789 188.0332 A 6.2973735 6.2973735 0 0 0 425.03906 197.42969 L 437.16406 199.80469 L 439.58594 187.44531 L 436.22656 186.78711 L 441.0293 178.70508 L 448.31836 196.0625 A 6.2973735 6.2973735 0 0 0 448.47852 196.41211 C 460.94073 221.66165 451.25667 254.8613 452.89453 287.2207 C 440.14893 288.90869 427.93851 291.91348 416.45898 296.02539 C 411.00491 291.96855 404.88231 288.76755 398.30078 286.58789 C 425.55158 212.20485 396.04834 121.22796 321.92188 67.001953 C 283.48176 38.827432 239.26376 25.067498 196.8457 25.09375 z M 186.44922 60.029297 A 13.479217 13.479217 0 0 1 187.79102 60.142578 C 208.22157 62.883258 227.76412 65.132988 246.58008 73.517578 C 265.39604 81.902168 282.58261 96.806556 296.80664 121.5293 A 13.479217 13.479217 0 0 1 298.51953 129.75195 C 297.30303 140.59906 298.70841 162.34756 296.04102 184.85156 C 293.37362 207.35556 286.05711 232.4589 264.62109 249.03711 A 13.479217 13.479217 0 0 1 262.91602 250.1582 L 213.39062 277.65039 C 239.33934 292.79384 267.50982 307.66066 292.4707 324.28125 L 292.2168 324.66211 C 293.85985 325.67294 295.48975 326.71061 297.10156 327.78516 L 296.86523 328.14062 C 309.17535 336.65205 316.31333 346.86734 313 352.5 C 309.67704 358.34382 296.37259 357.02685 282.33594 349.93359 L 282.14844 350.21484 C 280.78072 349.30303 279.38391 348.4169 277.96289 347.55078 C 277.63842 347.36154 277.32287 347.16874 277.00391 346.97656 C 254.19051 333.3377 224.94947 325.17572 196.48438 315.60352 C 165.83263 305.29599 135.0578 293.08736 116.67383 265.62305 A 13.479217 13.479217 0 0 1 116.66016 265.60156 C 105.67482 249.12356 89.50864 229.08459 79.09375 207.33789 C 73.886306 196.46454 70.013954 184.96083 69.716797 172.75977 C 69.426271 160.83098 73.091815 148.28303 81.466797 137.61328 C 101.27731 106.3475 126.39335 80.852001 157.11719 70.123047 C 164.94464 65.343104 173.78357 61.779602 183.90234 60.185547 A 13.479217 13.479217 0 0 1 186.44922 60.029297 z M 766.42383 74.275391 C 771.5353 74.264461 776.6838 74.427174 781.83594 74.771484 C 802.44449 76.148754 822.99938 80.736047 840.70117 90.623047 C 858.40297 100.51005 873.18468 116.29185 879.875 137.88672 L 879.79102 137.91211 C 885.60281 150.82091 886.45545 162.05618 881 165.875 C 874.21098 170.54941 860.39088 162.62012 848.35352 147.77148 L 847.25 148.11328 C 846.92548 147.06581 846.5831 146.05423 846.22852 145.06641 C 845.47635 144.06818 844.73108 143.05048 844 142 C 840.34522 136.8341 837.41003 131.60845 835.20508 126.63477 C 831.93222 123.22519 828.23825 120.45751 824.15234 118.13672 C 813.69929 112.19938 800.2023 109.50664 785.55273 109.63281 C 756.25361 109.88515 722.8295 122.09281 707.00195 132.69727 A 13.479217 13.479217 0 0 1 706.97656 132.71484 C 702.50843 135.6936 699.83463 137.44545 696.83398 139.41016 L 759.69922 165.68945 A 13.479217 13.479217 0 0 1 762.74023 167.45898 C 802.98216 198.54841 810.74742 253.79827 797 298.23438 A 13.479217 13.479217 0 0 1 796.99414 298.25586 C 791.44236 316.09095 782.06462 328.83013 768.66602 334.83203 C 755.26741 340.83393 740.95236 341.46463 720.88672 344.11133 C 701.08933 346.73101 685.68109 350.36431 669.34961 348.46484 C 653.02154 346.56578 637.53737 337.48723 623.2832 319.86523 C 608.08782 301.1312 595.5213 275.86539 589.35156 249.7207 C 583.18217 223.57749 583.12252 195.79621 597.66602 174.01758 C 628.04988 128.50379 624.57446 131.04336 676.12305 96.677734 C 696.68632 82.900344 730.64354 74.351891 766.42383 74.275391 z M 188.54492 91.638672 C 181.54979 91.718266 174.80867 92.804565 168.29883 94.800781 C 163.2343 98.336148 158.55409 102.93187 153.68359 108.58984 C 143.23248 120.73074 132.92694 137.42597 119.10352 154.35156 C 113.15895 161.70121 111.03423 166.83583 110.47461 170.31641 C 109.91499 173.79698 110.4167 176.3722 112.55273 180.63867 C 116.8248 189.17162 129.09308 201.78589 141.45117 220.25586 A 13.479217 13.479217 0 0 1 141.45898 220.26758 C 151.52005 235.33881 167.80075 248.63136 186.9082 261.29102 L 242.22461 217.20898 A 13.479217 13.479217 0 0 1 242.37891 217.08789 C 270.08837 195.65791 266.54878 162.98054 269.11914 133.64648 C 265.06546 122.94363 255.68217 114.00237 241.5957 106.79688 C 226.87879 99.268825 207.70014 94.221722 188.54492 91.638672 z M 312.58008 113.86133 C 327.35835 114.59182 341.58703 119.64307 353.375 129.375 C 385.75 155.875 387.625 207 357.5 243.625 C 331.54761 275.30854 290.25665 285.65717 258.62695 270.71875 C 284.25492 271.92957 311.50885 260.18503 330.5 237 C 360.625 200.375 358.75 149.125 326.375 122.625 C 322.07367 119.09057 317.44292 116.17841 312.58008 113.86133 z M 196.75 118.625 C 226.5 118.625 250.625 142.25 250.625 171.5 C 250.625 200.75 226.5 224.375 196.75 224.375 C 167 224.375 142.875 200.75 142.875 171.5 C 142.875 142.25 167 118.625 196.75 118.625 z M 203.68164 154.41406 C 197.78714 154.34784 191.86719 156.25781 187 160.25 C 175.75 169.375 174.25 186 183.625 197.375 C 193 208.75 209.625 210.5 220.75 201.375 C 231.875 192.25 233.375 175.625 224 164.25 C 218.79688 157.85156 211.26028 154.49921 203.68164 154.41406 z M 670.97852 156.76953 C 657.52704 166.64048 654.75733 172.63898 634.8457 202.4668 C 625.53613 216.4566 623.31825 232.33246 626.47266 249.41211 C 629.62707 266.49176 638.50464 284.39546 650.9668 299.75977 A 13.479217 13.479217 0 0 1 650.98047 299.77539 C 656.85403 307.03931 661.32331 310.87796 664.46094 312.69141 C 667.59856 314.50485 669.41107 314.84981 672.97852 314.73242 C 680.1134 314.49765 693.92567 309.6408 715.73828 306.76367 C 736.12321 304.07486 747.95945 301.95258 753.45312 298.92773 C 758.9466 295.90304 761.83844 292.0899 766.37109 277.40234 C 770.96767 262.4983 766.10242 246.60246 754.63086 229.78125 C 743.19947 213.01894 725.57945 196.70027 709.06641 183.9375 L 670.58594 157.33594 L 670.97852 156.76953 z M 788.41992 158.65039 C 812.46535 159.03359 837.38672 170.70312 855.125 192.375 C 885 228.75 883.25 279.625 851.125 306 C 834.85228 319.36009 813.92938 323.82153 793.35938 320.25781 C 804.57578 318.21733 815.21372 313.52152 824.375 306 C 856.375 279.625 858.25 228.75 828.375 192.375 C 813.57455 174.35437 793.77296 163.27846 773.65234 159.88477 C 778.48999 158.9828 783.43521 158.57095 788.41992 158.65039 z M 689.5 197.125 C 715.625 197.125 736.75 218.625 736.75 245.25 C 736.75 271.875 715.625 293.375 689.5 293.375 C 663.25 293.375 642.125 271.875 642.125 245.25 C 642.125 218.625 663.25 197.125 689.5 197.125 z M 688.95312 226.07812 C 683.07593 225.99545 677.1875 227.88281 672.375 231.875 C 661.375 240.875 660 257.5 669.25 268.75 C 678.5 280.125 695 281.875 706.125 272.875 C 717.125 263.75 718.5 247.25 709.25 235.875 C 704.04688 229.54688 696.50955 226.18443 688.95312 226.07812 z M 378.125 295.92188 C 406.73066 295.92188 429.82813 318.91074 429.82812 347.5 C 429.82812 375.95089 406.71426 399.07812 378.125 399.07812 C 349.53574 399.07812 326.54688 375.96735 326.54688 347.5 C 326.54688 318.89434 349.51934 295.92188 378.125 295.92188 z M 569.75 295.92188 C 598.35566 295.92188 621.32816 318.89434 621.32812 347.5 C 621.32812 375.96735 598.33926 399.07818 569.75 399.07812 C 541.16074 399.07812 518.04684 375.95089 518.04688 347.5 C 518.04688 318.91074 541.14434 295.92188 569.75 295.92188 z M 477.375 296.39453 C 493.70246 296.39453 509.31715 298.6214 523.80664 302.68164 C 512.46913 314.25324 505.45318 330.06571 505.45312 347.5 C 505.45312 382.79911 534.33926 411.67182 569.75 411.67188 C 587.67609 411.67188 603.88979 404.25964 615.53906 392.37109 C 616.32089 397.08479 616.73047 401.88344 616.73047 406.75 C 616.73047 467.1114 555.04854 517.10547 477.375 517.10547 C 399.70146 517.10547 338.01953 467.1114 338.01953 406.75 C 338.01953 403.7678 338.18772 400.81419 338.48633 397.88672 C 349.40507 406.5019 363.16591 411.67187 378.125 411.67188 C 413.53574 411.67188 442.42187 382.79911 442.42188 347.5 C 442.42188 330.85563 436.03372 315.68331 425.58984 304.27344 C 441.55766 299.20061 459.01749 296.39453 477.375 296.39453 z M 379.875 318.25 C 363.875 318.25 350.875 331.25 350.875 347.25 C 350.875 363.25 363.875 376.25 379.875 376.25 C 395.875 376.25 408.75 363.25 408.75 347.25 C 408.75 331.25 395.875 318.25 379.875 318.25 z M 569.75 318.625 C 553.625 318.625 540.75 331.5 540.75 347.5 C 540.75 363.375 553.625 376.375 569.75 376.375 C 585.75 376.375 598.625 363.375 598.625 347.5 C 598.625 331.5 585.75 318.625 569.75 318.625 z M 319.86328 374.31641 C 319.8738 374.33913 319.88399 374.36205 319.89453 374.38477 C 319.85528 374.37761 319.81661 374.36845 319.77734 374.36133 C 319.80625 374.34682 319.83439 374.33094 319.86328 374.31641 z M 800.94141 403.16992 L 800.94141 404.83008 L 806.11719 404.83008 L 806.11719 417.75 L 808.09961 417.75 L 808.09961 404.83008 L 813.27539 404.83008 L 813.27539 403.16992 L 800.94141 403.16992 z M 815.08203 403.16992 L 815.08203 417.75 L 816.99609 417.75 L 816.99609 404.94727 L 820.75586 414.94727 L 822.73828 414.94727 L 826.49805 404.94727 L 826.49805 417.75 L 828.42188 417.75 L 828.42188 403.16992 L 825.48242 403.16992 L 821.74219 413.0918 L 818.02148 403.16992 L 815.08203 403.16992 z M 420 436.33984 C 417.99214 450.17661 426.52426 462.1161 437.61133 470.39648 C 448.6984 478.67687 463.0709 484.35106 477.45898 486.76758 C 491.84706 489.18409 506.42955 488.57836 517.83594 481.61133 C 528.96538 474.81345 534.98021 460.73566 531.58398 443.72266 L 531.58398 440.875 L 515.41602 440.875 L 515.41602 444.25 A 8.0839897 8.0839897 0 0 0 515.61523 446.0293 C 518.58548 459.19471 515.50767 464.09008 509.41016 467.81445 C 503.31264 471.53882 492.07481 472.83153 480.13477 470.82617 C 468.19472 468.82081 455.73129 463.75282 447.2832 457.44336 C 438.83512 451.1339 435.13286 444.63589 436 438.66016 L 420 436.33984 z M 273.26172 444.31445 C 274.09136 444.30445 274.91948 444.30822 275.74609 444.32422 C 291.61694 444.63623 306.875 449.73438 319.39062 460 C 352.64062 487.375 353.76563 541 321.76562 579.875 C 289.89062 618.875 237.01562 628.25 203.64062 600.875 C 170.39062 573.5 169.26562 519.875 201.14062 480.875 C 220.51562 457.3374 247.54315 444.61391 273.26172 444.31445 z M 679.12891 444.43945 C 704.84748 444.73891 731.875 457.4624 751.25 481 C 783.125 520 782 573.625 748.75 601 C 715.375 628.375 662.5 619 630.5 580 C 598.625 541.125 599.75 487.375 633 460.125 C 645.51562 449.85938 660.77368 444.76123 676.64453 444.44922 C 677.47114 444.43297 678.29927 444.42979 679.12891 444.43945 z M 290.83008 471.36523 C 276.84141 471.11044 260.39069 479.5 248.01562 494.625 C 230.01562 516.5 227.64062 544.25 242.64062 556.5 C 257.64062 568.875 284.39062 561.125 302.39062 539.25 C 320.26562 517.25 322.64062 489.5 307.76562 477.25 C 303.03906 473.38281 297.18857 471.48105 290.83008 471.36523 z M 657.16992 474.98633 C 650.83157 475.10596 645.02344 477.00781 640.375 480.875 C 625.25 493.125 627.625 520.875 645.625 542.75 C 663.5 564.5 690.25 572.25 705.25 560 C 720.25 547.625 717.875 519.875 700 498.125 C 687.625 483.08594 671.11429 474.72314 657.16992 474.98633 z "
     transform="translate(22,40)"
     id="path21" />
</svg>
