<?xml version="1.0" encoding="utf-8"?>
<!-- Generator: Adobe Illustrator 15.1.0, SVG Export Plug-In . SVG Version: 6.00 Build 0)  -->
<!DOCTYPE svg PUBLIC "-//W3C//DTD SVG 1.1//EN" "http://www.w3.org/Graphics/SVG/1.1/DTD/svg11.dtd">
<svg version="1.1" id="Layer_1" xmlns:svg="http://www.w3.org/2000/svg"
	 xmlns="http://www.w3.org/2000/svg" xmlns:xlink="http://www.w3.org/1999/xlink" x="0px" y="0px" width="948px" height="693px"
	 viewBox="0 0 948 693" enable-background="new 0 0 948 693" xml:space="preserve">
<g>
	<rect x="308.155" y="372.921" stroke="#000000" stroke-width="1.0588" stroke-miterlimit="10" width="6.088" height="4.896"/>
	<path id="path21" d="M351.236,646.296c-73.324,53.735-171.397,44.471-219.176-20.779c-47.647-65.118-26.868-161.471,46.456-215.074
		c73.191-53.734,171.396-44.471,219.044,20.647C445.339,496.34,424.56,592.692,351.236,646.296z"/>
	<path id="path25" fill="none" stroke="#000000" stroke-width="4.5546" stroke-linejoin="round" stroke-miterlimit="10" d="
		M351.236,646.296c-73.324,53.735-171.397,44.471-219.176-20.779c-47.647-65.118-26.868-161.471,46.456-215.074
		c73.191-53.734,171.396-44.471,219.044,20.647C445.339,496.34,424.56,592.692,351.236,646.296z"/>
	<path id="path27" d="M310.736,53.619c91.191,66.706,117,186.485,57.573,267.485c-59.294,81-181.323,92.515-272.382,25.809
		c-91.191-66.706-117-186.618-57.706-267.617C97.648-1.704,219.545-13.219,310.736,53.619z"/>
	<path id="path31" fill="none" stroke="#000000" stroke-width="7.611" stroke-linejoin="round" stroke-miterlimit="10" d="
		M310.736,53.619c91.191,66.706,117,186.485,57.573,267.485c-59.294,81-181.323,92.515-272.382,25.809
		c-91.191-66.706-117-186.618-57.706-267.617C97.648-1.704,219.545-13.219,310.736,53.619z"/>
	<path id="path33" fill="#00FF00" d="M230.927,256.12c-34.147-28.059-36.132-82.324-4.367-120.971
		c31.897-38.779,85.367-47.515,119.514-19.323c34.279,28.059,36.265,82.191,4.368,120.971
		C318.677,275.575,265.207,284.178,230.927,256.12z"/>
	<path id="path37" fill="none" d="M230.927,256.12c-34.147-28.059-36.132-82.324-4.367-120.971
		c31.897-38.779,85.367-47.515,119.514-19.323c34.279,28.059,36.265,82.191,4.368,120.971
		C318.677,275.575,265.207,284.178,230.927,256.12z"/>
	<path id="path39" d="M202.339,249.104c-34.279-28.191-36.265-82.323-4.5-121.103c31.897-38.779,85.5-47.382,119.646-19.324
		c34.28,28.059,36.265,82.324,4.368,121.103C290.089,268.561,236.486,277.164,202.339,249.104z"/>
	<path id="path43" fill="none" d="M202.339,249.104c-34.279-28.191-36.265-82.323-4.5-121.103
		c31.897-38.779,85.5-47.382,119.646-19.324c34.28,28.059,36.265,82.324,4.368,121.103
		C290.089,268.561,236.486,277.164,202.339,249.104z"/>
	<path id="path47" fill="none" stroke="#0000FF" stroke-width="22.8331" stroke-linejoin="round" stroke-miterlimit="10" d="
		M273.677,334.075c-55.059-36.662-131.162-65.118-163.853-114.088c-24.353-36.397-52.015-50.691-22.897-86.691
		c27.794-34.015,43.279-70.544,81.927-76.633c43.412,5.824,77.161,9.662,104.956,57.971c-3.176,28.324,6.353,88.147-30.441,116.603
		l-63.662,35.338"/>
	<path id="path49" fill="#FF3366" d="M180.236,216.414c-31.5,0-57.043-25.015-57.043-55.986s25.543-55.985,57.043-55.985
		s57.044,25.014,57.044,55.985S211.736,216.414,180.236,216.414z"/>
	<path id="path53" fill="none" d="M180.236,216.414c-31.5,0-57.043-25.015-57.043-55.986s25.543-55.985,57.043-55.985
		s57.044,25.014,57.044,55.985S211.736,216.414,180.236,216.414z"/>
	<path id="path55" fill="#0000FF" d="M205.648,192.061c-11.78,9.662-29.382,7.809-39.309-4.235
		c-9.927-12.044-8.338-29.647,3.573-39.309c11.779-9.662,29.382-7.809,39.177,4.236
		C219.016,164.796,217.427,182.398,205.648,192.061z"/>
	<path id="path59" fill="none" d="M205.648,192.061c-11.78,9.662-29.382,7.809-39.309-4.235
		c-9.927-12.044-8.338-29.647,3.573-39.309c11.779-9.662,29.382-7.809,39.177,4.236
		C219.016,164.796,217.427,182.398,205.648,192.061z"/>
	<path id="path63" fill="none" stroke="#0000FF" stroke-width="22.8331" stroke-linejoin="round" stroke-miterlimit="10" d="
		M278.575,337.781C223.383,300.987,140,300.987,107.31,252.148c-24.353-36.529-66.573-83.515-37.456-119.382
		c26.603-42.221,60.353-71.206,102.573-71.206c43.544,5.691,88.28,22.5,98.868,56.647c-3.044,28.456,2.779,73.323-34.015,101.779
		l-59.956,47.78"/>
	<path id="path65" fill="#0000FF" d="M303.324,352.075c-3.838,6.75-20.25,4.5-36.529-4.897c-16.412-9.396-26.471-22.5-22.632-29.25
		c3.971-6.618,20.25-4.5,36.662,4.897C297.104,332.354,307.295,345.325,303.324,352.075z"/>
	<path id="path69" fill="none" d="M303.324,352.075c-3.838,6.75-20.25,4.5-36.529-4.897c-16.412-9.396-26.471-22.5-22.632-29.25
		c3.971-6.618,20.25-4.5,36.662,4.897C297.104,332.354,307.295,345.325,303.324,352.075z"/>
	<path id="path71" d="M781.25,411.634c73.191,53.604,93.972,150.088,46.191,215.206c-47.779,65.25-145.853,74.515-219.176,20.911
		c-73.191-53.734-93.971-150.088-46.191-215.205C609.854,367.296,707.928,357.898,781.25,411.634z"/>
	<path id="path75" fill="none" stroke="#000000" stroke-width="4.5546" stroke-linejoin="round" stroke-miterlimit="10" d="
		M781.25,411.634c73.191,53.604,93.972,150.088,46.191,215.206c-47.779,65.25-145.853,74.515-219.176,20.911
		c-73.191-53.734-93.971-150.088-46.191-215.205C609.854,367.296,707.928,357.898,781.25,411.634z"/>
	<path id="path77" fill="#FFFF00" d="M477.368,532.075c-84.706,0-153.264-54.794-153.264-122.559
		c0-67.633,68.558-122.559,153.264-122.559s153.265,54.926,153.265,122.559C630.633,477.281,562.074,532.075,477.368,532.075z"/>
	<path id="path81" fill="none" stroke="#000000" stroke-width="9.1392" stroke-linejoin="round" stroke-miterlimit="10" d="
		M477.368,532.075c-84.706,0-153.264-54.794-153.264-122.559c0-67.633,68.558-122.559,153.264-122.559
		s153.265,54.926,153.265,122.559C630.633,477.281,562.074,532.075,477.368,532.075z"/>
	<path id="path83" fill="#FFFFFF" d="M372.28,408.061c-33.883,0-61.279-27.529-61.279-61.279c0-33.883,27.396-61.28,61.279-61.28
		c33.882,0,61.412,27.397,61.412,61.28C433.692,380.531,406.163,408.061,372.28,408.061z"/>
	<path id="path87" fill="none" stroke="#000000" stroke-width="10.6674" stroke-linejoin="round" stroke-miterlimit="10" d="
		M372.28,408.061c-33.883,0-61.279-27.529-61.279-61.279c0-33.883,27.396-61.28,61.279-61.28c33.882,0,61.412,27.397,61.412,61.28
		C433.692,380.531,406.163,408.061,372.28,408.061z"/>
	<path id="path89" d="M853.118,354.324c-90.529,66.31-211.765,54.795-270.661-25.675c-59.03-80.471-33.354-199.457,57.177-265.897
		C730.162-3.557,851.398,7.958,910.295,88.428C969.324,169.031,943.648,288.017,853.118,354.324z"/>
	<path id="path93" fill="none" stroke="#000000" stroke-width="7.611" stroke-linejoin="round" stroke-miterlimit="10" d="
		M853.118,354.324c-90.529,66.31-211.765,54.795-270.661-25.675c-59.03-80.471-33.354-199.457,57.177-265.897
		C730.162-3.557,851.398,7.958,910.295,88.428C969.324,169.031,943.648,288.017,853.118,354.324z"/>
	<path id="path95" fill="#00FF00" d="M873.104,302.84c-34.015,27.927-87.221,19.191-118.853-19.324
		c-31.633-38.514-29.78-92.382,4.234-120.309c34.015-27.927,87.222-19.323,118.854,19.324
		C908.972,221.045,907.118,274.913,873.104,302.84z"/>
	<path id="path99" fill="none" d="M873.104,302.84c-34.015,27.927-87.221,19.191-118.853-19.324
		c-31.633-38.514-29.78-92.382,4.234-120.309c34.015-27.927,87.222-19.323,118.854,19.324
		C908.972,221.045,907.118,274.913,873.104,302.84z"/>
	<path id="path101" d="M844.779,302.84c-34.014,27.927-87.22,19.191-118.852-19.324c-31.633-38.514-29.779-92.382,4.234-120.176
		c34.015-27.926,87.222-19.323,118.854,19.191C880.648,221.045,878.662,274.913,844.779,302.84z"/>
	<path id="path105" fill="none" d="M844.779,302.84c-34.014,27.927-87.22,19.191-118.852-19.324
		c-31.633-38.514-29.779-92.382,4.234-120.176c34.015-27.926,87.222-19.323,118.854,19.191
		C880.648,221.045,878.662,274.913,844.779,302.84z"/>
	<path id="path109" fill="none" stroke="#0000FF" stroke-width="22.8331" stroke-linejoin="round" stroke-miterlimit="10" d="
		M882.633,131.443C858.81,54.545,752.266,80.884,712.56,107.487c-54.794,36.53-47.912,29.25-80.339,77.824
		c-24.22,36.397-11.116,84.176,17.869,119.912c27.396,33.883,38.381,18.265,81.529,12.574c43.146-5.691,54.926-7.147,65.382-41.029
		c13.103-42.485-29.25-86.427-65.779-114.618l-41.163-28.456"/>
	<path id="path111" fill="#FF3366" d="M701.972,289.472c-27.794,0-50.162-22.765-50.162-50.956
		c0-28.191,22.368-50.956,50.162-50.956c27.661,0,50.028,22.765,50.028,50.956C752,266.708,729.633,289.472,701.972,289.472z"/>
	<path id="path115" fill="none" d="M701.972,289.472c-27.794,0-50.162-22.765-50.162-50.956c0-28.191,22.368-50.956,50.162-50.956
		c27.661,0,50.028,22.765,50.028,50.956C752,266.708,729.633,289.472,701.972,289.472z"/>
	<path id="path117" fill="#0000FF" d="M719.574,267.767c-11.779,9.529-29.25,7.676-39.044-4.368
		c-9.794-11.912-8.339-29.515,3.309-39.043c11.646-9.662,29.25-7.677,39.044,4.235C732.678,240.634,731.222,258.104,719.574,267.767
		z"/>
	<path id="path121" fill="none" d="M719.574,267.767c-11.779,9.529-29.25,7.676-39.044-4.368
		c-9.794-11.912-8.339-29.515,3.309-39.043c11.646-9.662,29.25-7.677,39.044,4.235C732.678,240.634,731.222,258.104,719.574,267.767
		z"/>
	<path id="path125" fill="none" stroke="#0000FF" stroke-width="22.8331" stroke-linejoin="round" stroke-miterlimit="10" d="
		M889.912,129.06c-23.823-76.896-154.456-62.602-194.162-36c-54.793,36.529-46.72,29.382-79.146,77.956
		c-24.22,36.265-2.647,101.779,26.338,137.515c27.397,33.882,47.383,26.206,90.397,20.515c43.146-5.691,58.235-4.633,68.823-38.647
		c13.104-42.353,5.295-94.632-31.367-122.956l-80.736-33.75"/>
	<path id="path127" fill="#FFFFFF" d="M575.177,408.061c-33.882,0-61.411-27.529-61.411-61.279c0-33.883,27.529-61.28,61.411-61.28
		c33.883,0,61.279,27.397,61.279,61.28C636.456,380.531,609.06,408.061,575.177,408.061z"/>
	<path id="path131" fill="none" stroke="#000000" stroke-width="10.6674" stroke-linejoin="round" stroke-miterlimit="10" d="
		M575.177,408.061c-33.882,0-61.411-27.529-61.411-61.279c0-33.883,27.529-61.28,61.411-61.28c33.883,0,61.279,27.397,61.279,61.28
		C636.456,380.531,609.06,408.061,575.177,408.061z"/>
	<path id="path133" d="M374.133,377.222c-16.941,0-30.706-13.765-30.706-30.705c0-16.941,13.765-30.707,30.706-30.707
		c16.941,0,30.574,13.765,30.574,30.707C404.707,363.457,391.074,377.222,374.133,377.222z"/>
	<path id="path137" fill="none" d="M374.133,377.222c-16.941,0-30.706-13.765-30.706-30.705c0-16.941,13.765-30.707,30.706-30.707
		c16.941,0,30.574,13.765,30.574,30.707C404.707,363.457,391.074,377.222,374.133,377.222z"/>
	<path id="path139" d="M577.428,373.781c-17.074,0-30.707-13.766-30.707-30.574c0-16.941,13.633-30.573,30.707-30.573
		c16.94,0,30.573,13.632,30.573,30.573C608.001,360.016,594.368,373.781,577.428,373.781z"/>
	<path id="path143" fill="none" d="M577.428,373.781c-17.074,0-30.707-13.766-30.707-30.574c0-16.941,13.633-30.573,30.707-30.573
		c16.94,0,30.573,13.632,30.573,30.573C608.001,360.016,594.368,373.781,577.428,373.781z"/>
	<path id="path147" fill="none" stroke="#FF3366" stroke-width="13.6939" stroke-linejoin="round" stroke-miterlimit="10" d="
		M425.089,442.075c-6.088,41.956,115.809,72.265,101.118,7.147v-3.574"/>
	<path id="path151" fill="none" stroke="#000000" stroke-width="10.6674" stroke-linejoin="round" stroke-miterlimit="10" d="
		M458.31,285.898c-2.515-33.353,9.662-71.206-5.559-102.044l-12.838-30.573l-16.676,28.059l12.838,2.515"/>
	<path id="path155" fill="none" stroke="#000000" stroke-width="10.6674" stroke-linejoin="round" stroke-miterlimit="10" d="
		M495.634,285.898c2.514-33.353-9.795-71.206,5.427-102.044l12.838-30.573l16.676,28.059l-12.839,2.515"/>
	<path id="path157" fill="#FF3366" d="M188.31,615.061c-35.206-28.985-36.397-85.765-2.647-127.059
		c33.882-41.163,89.868-51.088,125.206-22.104c35.206,28.985,36.397,85.766,2.515,126.927
		C279.633,634.119,223.648,644.046,188.31,615.061z"/>
	<path id="path161" fill="none" d="M188.31,615.061c-35.206-28.985-36.397-85.765-2.647-127.059
		c33.882-41.163,89.868-51.088,125.206-22.104c35.206,28.985,36.397,85.766,2.515,126.927
		C279.633,634.119,223.648,644.046,188.31,615.061z"/>
	<path id="path165" fill="none" stroke="#000000" stroke-width="9.1392" stroke-linejoin="round" stroke-miterlimit="10" d="
		M445.604,533.399v39.572l21.706,36.001l0,0"/>
	<path id="path169" fill="none" stroke="#000000" stroke-width="9.1392" stroke-linejoin="round" stroke-miterlimit="10" d="
		M493.912,533.399v39.704l21.706,36.001l0,0"/>
	<path id="path171" fill="#0000FF" d="M229.604,568.075c-15.883-12.971-13.368-42.354,5.691-65.515
		c19.059-23.294,47.25-31.5,63.265-18.397c15.75,12.971,13.235,42.353-5.691,65.646C273.81,572.972,245.486,581.178,229.604,568.075
		z"/>
	<path id="path175" fill="none" d="M229.604,568.075c-15.883-12.971-13.368-42.354,5.691-65.515
		c19.059-23.294,47.25-31.5,63.265-18.397c15.75,12.971,13.235,42.353-5.691,65.646C273.81,572.972,245.486,581.178,229.604,568.075
		z"/>
	<path id="path177" fill="#FF3366" d="M764.707,615.193c-35.339,28.984-91.323,19.058-125.206-22.236
		c-33.75-41.161-32.559-98.073,2.646-126.926c35.338-28.985,91.324-19.059,125.206,22.103
		C801.104,529.428,799.913,586.208,764.707,615.193z"/>
	<path id="path181" fill="none" d="M764.707,615.193c-35.339,28.984-91.323,19.058-125.206-22.236
		c-33.75-41.161-32.559-98.073,2.646-126.926c35.338-28.985,91.324-19.059,125.206,22.103
		C801.104,529.428,799.913,586.208,764.707,615.193z"/>
	<path id="path183" fill="#0000FF" d="M718.647,571.78c-15.882,12.972-44.205,4.766-63.133-18.264
		c-19.059-23.162-21.572-52.544-5.559-65.515c15.75-13.104,44.074-4.897,63.133,18.265
		C732.016,529.296,734.53,558.678,718.647,571.78z"/>
	<path id="path187" fill="none" d="M718.647,571.78c-15.882,12.972-44.205,4.766-63.133-18.264
		c-19.059-23.162-21.572-52.544-5.559-65.515c15.75-13.104,44.074-4.897,63.133,18.265
		C732.016,529.296,734.53,558.678,718.647,571.78z"/>
	<text transform="matrix(1 0 0 1 820.0293 421.1621)" fill="#808080" font-family="'ArialMT'" font-size="21.1765">T</text>
	<text transform="matrix(1 0 0 1 832.8613 421.1621)" fill="#808080" font-family="'ArialMT'" font-size="21.1765">M</text>
	<path id="path195" fill="#0000FF" d="M904.736,154.472c-8.073,5.559-25.545-5.691-39.177-25.28
		c-13.765-19.455-18.265-39.838-10.324-45.396c7.942-5.559,25.545,5.691,39.177,25.279
		C908.045,128.531,912.677,148.913,904.736,154.472z"/>
	<path id="path199" fill="none" d="M904.736,154.472c-8.073,5.559-25.545-5.691-39.177-25.28
		c-13.765-19.455-18.265-39.838-10.324-45.396c7.942-5.559,25.545,5.691,39.177,25.279
		C908.045,128.531,912.677,148.913,904.736,154.472z"/>
	<rect x="632.221" y="377.817" stroke="#000000" stroke-width="1.0588" stroke-miterlimit="10" width="6.088" height="4.897"/>
</g>
</svg>
